<?xml version="1.0" standalone="no"?>
<!DOCTYPE svg PUBLIC "-//W3C//DTD SVG 20010904//EN"
 "http://www.w3.org/TR/2001/REC-SVG-20010904/DTD/svg10.dtd">
<svg version="1.0" xmlns="http://www.w3.org/2000/svg"
 width="1200.000000pt" height="1200.000000pt" viewBox="0 0 1200.000000 1200.000000"
 preserveAspectRatio="xMidYMid meet">
<metadata>
Created by potrace 1.14, written by Peter Selinger 2001-2017
</metadata>
<g transform="translate(0.000000,1200.000000) scale(0.100000,-0.100000)"
fill="#000000" stroke="none">
<path d="M3164 11392 c-6 -4 -11 -18 -11 -32 0 -48 -13 -113 -25 -128 -11 -13
-11 -14 1 -8 10 7 11 3 5 -15 -4 -13 -7 -32 -6 -41 0 -10 -3 -18 -7 -18 -4 0
-8 -17 -9 -39 -2 -21 -6 -51 -11 -67 -4 -16 -7 -37 -5 -46 1 -10 -2 -18 -7
-18 -5 0 -8 -3 -8 -7 1 -5 0 -10 -1 -13 -1 -3 -3 -23 -5 -45 -3 -34 -20 -135
-39 -225 -3 -13 -8 -40 -11 -60 -3 -20 -8 -47 -11 -60 -3 -14 -7 -34 -8 -45
-2 -11 -6 -36 -10 -55 -3 -19 -8 -46 -10 -60 -3 -14 -5 -25 -6 -25 -1 0 -4
-20 -6 -45 -2 -25 -8 -46 -12 -48 -5 -1 -8 -16 -6 -32 2 -17 -1 -30 -7 -30 -6
0 -8 -4 -4 -9 3 -5 0 -31 -6 -58 -6 -26 -11 -59 -11 -73 0 -14 -3 -29 -7 -35
-4 -5 -8 -25 -9 -44 -2 -18 -6 -41 -10 -50 -5 -9 -7 -26 -6 -38 0 -13 -2 -23
-6 -23 -4 0 -6 -14 -5 -30 1 -17 -2 -33 -6 -35 -4 -3 -6 -16 -4 -30 1 -14 -2
-25 -7 -25 -5 0 -7 -4 -4 -8 3 -5 -1 -34 -8 -65 -7 -31 -12 -57 -9 -57 2 0 -1
-10 -8 -21 -9 -17 -8 -20 3 -13 11 6 11 5 -1 -9 -7 -9 -11 -17 -8 -17 3 0 1
-15 -4 -32 -6 -18 -12 -49 -14 -68 -3 -19 -7 -46 -10 -60 -3 -14 -8 -38 -10
-55 -21 -120 -31 -175 -41 -220 -4 -16 -8 -41 -10 -55 -5 -38 -16 -100 -34
-190 -18 -90 -23 -124 -22 -142 0 -10 -2 -18 -6 -18 -7 0 -10 -16 -16 -93 -2
-22 -7 -42 -12 -45 -5 -4 -10 -23 -10 -42 -2 -44 -8 -78 -16 -86 -4 -3 -4 -13
-1 -21 3 -8 0 -19 -8 -24 -11 -7 -11 -9 -1 -9 7 0 10 -4 7 -10 -9 -14 -16 -49
-20 -90 -1 -19 -5 -42 -8 -50 -3 -8 -10 -44 -17 -80 -7 -36 -14 -72 -18 -80
-3 -8 -4 -21 -3 -28 1 -8 -4 -21 -11 -30 -10 -12 -10 -14 0 -8 13 8 17 -6 5
-18 -12 -11 -13 -46 -2 -46 5 0 7 -5 4 -10 -4 -6 -1 -18 7 -27 7 -9 12 -18 11
-20 -2 -1 -3 -4 -2 -5 2 -7 8 -36 14 -67 3 -19 9 -39 13 -45 3 -6 8 -20 9 -31
2 -11 6 -27 10 -35 3 -8 5 -21 4 -27 -1 -7 2 -13 8 -13 5 0 7 -8 4 -19 -3 -10
0 -22 6 -25 6 -4 11 -18 11 -31 0 -13 5 -27 10 -30 6 -4 8 -10 6 -14 -3 -4 7
-45 20 -92 14 -46 27 -93 29 -104 1 -11 4 -22 5 -25 2 -3 4 -9 5 -15 2 -5 4
-13 5 -17 1 -5 3 -11 4 -15 2 -5 8 -28 16 -53 7 -25 15 -54 17 -65 2 -11 8
-31 13 -45 5 -14 11 -35 13 -47 2 -12 6 -26 10 -29 4 -4 7 -20 7 -35 0 -15 5
-31 10 -34 6 -4 7 -13 1 -23 -4 -9 -7 -27 -6 -39 1 -13 -1 -23 -5 -23 -3 0 -5
-15 -5 -32 0 -18 -3 -38 -7 -43 -4 -6 -8 -29 -10 -50 -2 -22 -7 -43 -13 -47
-6 -5 -5 -11 4 -17 9 -6 9 -10 2 -12 -6 -2 -12 -16 -13 -31 -1 -16 -6 -28 -11
-28 -5 0 -4 -6 2 -14 8 -10 9 -16 1 -21 -6 -3 -8 -11 -5 -16 4 -5 0 -9 -7 -9
-9 0 -9 -3 2 -10 8 -5 10 -10 3 -10 -6 0 -10 -13 -9 -31 1 -16 -1 -32 -6 -35
-4 -3 -8 -18 -8 -33 0 -15 -3 -31 -6 -34 -4 -4 -8 -25 -9 -47 -1 -23 -5 -44
-8 -47 -4 -3 -2 -15 4 -26 8 -14 8 -18 0 -13 -6 4 -11 3 -11 -3 0 -5 -3 -17
-7 -27 -5 -14 -3 -16 13 -11 16 6 15 4 -4 -10 -17 -14 -21 -26 -19 -53 2 -22
8 -34 16 -32 7 1 10 -2 6 -7 -3 -6 -11 -8 -19 -5 -7 3 -13 -1 -14 -8 0 -7 -3
-23 -6 -36 -3 -15 -1 -21 7 -17 7 4 3 -1 -7 -9 -15 -12 -16 -16 -5 -16 12 0
12 -2 0 -9 -11 -7 -11 -9 0 -14 10 -4 10 -6 2 -6 -7 -1 -13 -14 -13 -29 0 -15
-6 -34 -12 -41 -10 -11 -10 -13 0 -7 13 8 17 -6 5 -18 -4 -3 -8 -14 -10 -24
-8 -43 -7 -57 4 -57 7 0 18 -6 25 -14 11 -12 10 -12 -2 -5 -20 11 -40 14 -41
6 0 -4 -2 -19 -4 -35 -3 -19 0 -25 8 -21 7 3 5 -1 -5 -8 -12 -11 -14 -18 -6
-32 7 -13 7 -17 0 -12 -5 3 -13 -1 -16 -10 -3 -8 -2 -12 4 -9 6 3 10 2 10 -4
0 -5 -6 -11 -12 -14 -10 -3 -10 -9 -1 -25 10 -17 10 -20 -1 -16 -9 3 -13 -2
-12 -18 1 -13 -1 -28 -5 -33 -13 -18 -3 -47 20 -60 20 -10 21 -13 7 -18 -10
-4 -15 -3 -12 2 3 5 -1 12 -10 15 -24 9 -28 7 -14 -9 10 -12 10 -15 -3 -15
-11 0 -14 -6 -11 -15 4 -11 10 -12 18 -6 8 7 12 4 13 -9 1 -11 -2 -22 -8 -25
-5 -3 -6 1 -3 10 5 11 2 14 -10 9 -9 -3 -13 -10 -10 -15 3 -5 0 -9 -5 -9 -6 0
-11 -4 -11 -10 0 -5 7 -7 15 -4 8 4 15 1 15 -5 0 -6 -5 -11 -11 -11 -8 0 -7
-5 1 -15 7 -9 10 -18 6 -22 -3 -3 1 -17 10 -31 9 -13 14 -33 11 -43 -3 -12 2
-23 14 -29 21 -12 45 -50 31 -50 -6 0 -12 9 -15 20 -3 11 -11 20 -19 20 -11 0
-10 -2 1 -9 7 -5 10 -14 7 -20 -4 -6 -3 -11 3 -11 5 0 8 -8 7 -17 -2 -10 3
-33 11 -50 7 -18 10 -33 6 -33 -4 0 -2 -5 5 -12 7 -7 12 -20 12 -30 0 -10 5
-18 10 -18 6 0 10 -5 10 -11 0 -5 -4 -8 -8 -5 -5 3 -4 -10 2 -29 6 -19 14 -35
17 -35 9 0 7 34 -4 48 -6 8 -6 12 1 12 12 0 24 -28 17 -40 -7 -11 23 -34 48
-36 12 -1 30 6 40 14 16 15 17 14 11 -1 -4 -11 -1 -17 9 -17 9 0 19 -5 23 -12
5 -8 2 -9 -9 -5 -47 19 -52 18 -28 -2 13 -12 27 -21 32 -21 17 0 23 33 8 44
-18 14 -24 46 -8 46 7 0 9 -3 6 -6 -3 -4 -2 -15 4 -26 10 -18 12 -19 29 -3 12
11 20 13 25 6 9 -16 -3 -31 -20 -24 -9 3 -15 -1 -16 -8 0 -8 -2 -24 -3 -37 -2
-13 6 -35 17 -48 l20 -25 18 27 c10 15 15 32 12 37 -3 6 -1 7 5 3 9 -5 8 -14
-2 -34 -7 -15 -11 -32 -9 -38 2 -6 -3 -17 -12 -24 -8 -7 -15 -18 -15 -24 0 -6
4 -4 10 4 5 8 12 11 17 6 4 -4 0 -12 -10 -17 -9 -6 -17 -15 -17 -20 0 -6 5 -7
10 -4 6 3 10 1 10 -4 0 -6 -4 -11 -9 -11 -5 0 -7 -15 -6 -32 l3 -33 -19 24
c-12 15 -19 18 -19 9 0 -8 5 -19 10 -24 18 -18 21 -54 4 -47 -8 3 -14 1 -14
-5 0 -6 6 -12 13 -15 9 -3 9 -7 -2 -20 -7 -10 -9 -17 -4 -17 5 0 10 -7 10 -14
0 -8 -3 -14 -6 -13 -3 1 -6 -2 -6 -8 0 -5 4 -9 9 -7 5 2 4 -3 -2 -11 -7 -8 -9
-17 -5 -20 3 -4 1 -7 -6 -7 -8 0 -11 7 -7 15 3 8 0 14 -7 12 -7 -1 -11 6 -9
16 3 16 1 16 -18 5 -20 -13 -20 -13 0 -22 25 -11 27 -31 3 -21 -14 5 -15 3 -6
-6 6 -6 9 -18 6 -25 -3 -8 0 -14 6 -14 6 0 10 5 9 11 -2 6 4 14 12 16 13 4 13
3 0 -6 -13 -10 -13 -11 0 -11 12 -1 11 -3 -3 -11 -12 -7 -15 -15 -9 -27 5 -9
7 -28 6 -42 -3 -39 -13 -105 -15 -105 -1 0 -3 -9 -5 -20 -2 -11 -5 -31 -8 -45
-3 -14 -7 -43 -11 -65 -3 -22 -8 -50 -10 -62 -3 -13 -7 -33 -10 -45 -7 -36
-16 -101 -18 -125 0 -13 -4 -23 -8 -23 -4 0 -6 -14 -5 -31 1 -16 -1 -32 -5
-35 -5 -3 -6 -11 -2 -19 3 -8 1 -15 -3 -15 -5 0 -10 -12 -11 -27 -1 -26 -6
-56 -19 -123 -2 -14 -6 -38 -8 -55 -2 -16 -5 -30 -6 -30 -1 0 -3 -9 -5 -20
-19 -122 -23 -140 -25 -140 -2 0 -8 -43 -15 -95 -2 -19 -5 -36 -6 -37 -3 -6
-7 -24 -8 -49 0 -14 -4 -23 -8 -21 -5 3 -8 -11 -9 -31 -1 -21 -4 -50 -7 -67
-3 -16 -9 -46 -12 -65 -4 -19 -8 -48 -10 -65 -2 -16 -4 -30 -5 -30 -3 0 -9
-39 -12 -67 -1 -16 -6 -28 -11 -28 -4 0 -5 -4 -2 -10 3 -5 1 -19 -6 -31 -8
-16 -8 -20 1 -14 9 6 9 2 1 -14 -9 -16 -9 -21 0 -21 7 0 9 -3 6 -7 -4 -3 -1
-13 6 -21 10 -13 9 -14 -1 -8 -11 6 -11 4 -4 -10 10 -19 40 -117 47 -151 2
-10 4 -18 5 -18 3 0 22 -85 23 -102 0 -7 5 -13 10 -13 6 0 8 -3 4 -6 -3 -4 1
-23 9 -42 8 -20 12 -42 10 -49 -3 -7 0 -13 6 -13 6 0 9 -3 5 -6 -3 -4 0 -19 8
-34 8 -15 12 -30 9 -33 -11 -10 7 -47 19 -40 9 5 8 2 0 -8 -10 -12 -10 -18 -1
-27 7 -7 8 -12 4 -12 -5 0 -3 -7 4 -15 7 -8 10 -22 6 -30 -3 -8 -1 -15 4 -15
6 0 9 -3 8 -7 -1 -9 10 -59 19 -83 4 -8 8 -28 10 -45 3 -16 9 -35 14 -41 4 -6
9 -25 11 -42 1 -18 5 -32 8 -32 4 0 7 -6 8 -12 1 -12 18 -85 28 -116 2 -7 4
-16 5 -20 1 -4 8 -29 16 -57 9 -27 16 -54 18 -60 1 -5 5 -18 9 -27 4 -9 5 -22
1 -28 -3 -5 -1 -10 4 -10 6 0 10 -3 10 -8 -1 -4 0 -9 1 -12 5 -15 11 -47 11
-62 0 -10 4 -18 9 -18 5 0 9 -8 9 -17 2 -42 6 -63 11 -63 3 0 7 -12 8 -26 1
-15 7 -33 13 -40 6 -8 9 -21 5 -29 -3 -8 -1 -15 5 -15 6 0 9 -6 6 -12 -2 -7 2
-28 10 -45 7 -18 13 -35 13 -38 0 -3 3 -12 7 -20 3 -9 3 -18 0 -22 -4 -3 0
-18 8 -34 8 -15 17 -36 18 -46 2 -10 7 -25 10 -33 3 -8 8 -26 11 -40 16 -78
29 -126 38 -137 5 -7 7 -17 3 -24 -4 -6 -3 -14 3 -18 6 -4 12 -21 14 -39 1
-18 5 -32 8 -32 5 0 9 -18 12 -57 1 -7 4 -13 8 -13 4 0 7 -10 6 -22 0 -11 4
-23 11 -25 6 -2 71 54 142 125 72 71 133 127 136 124 3 -3 5 -1 5 5 0 13 288
303 301 303 6 0 9 3 7 8 -5 9 160 171 167 164 3 -3 5 -1 5 5 0 13 289 303 303
303 6 0 8 2 5 5 -7 7 815 832 825 827 4 -2 7 1 7 6 0 9 223 235 478 484 61 59
107 109 104 112 -3 3 0 6 5 6 6 0 55 45 109 100 58 59 104 98 112 95 7 -2 11
-1 8 4 -3 5 7 8 23 6 29 -2 114 8 159 19 12 3 31 8 43 11 50 11 62 15 144 50
54 23 153 84 189 115 49 41 146 143 146 152 0 5 8 18 19 29 21 23 77 135 83
164 1 11 7 23 12 27 5 3 11 17 12 30 4 27 12 63 14 63 4 0 10 45 13 96 2 30 6
60 10 66 4 5 4 13 0 17 -4 3 -8 34 -9 69 -2 34 -5 69 -7 77 -2 8 -7 31 -11 50
-7 34 -16 63 -32 105 -4 11 -6 26 -5 32 1 7 -3 13 -8 13 -5 0 -13 10 -16 21
-22 69 -138 213 -222 275 -21 16 -47 37 -57 46 -11 10 -25 18 -30 18 -6 0 -22
9 -36 20 -14 11 -33 20 -42 20 -10 0 -18 5 -18 10 0 6 -7 10 -15 10 -8 0 -23
4 -33 9 -18 10 -85 30 -117 36 -11 2 -20 4 -20 5 0 3 -49 11 -82 13 -18 2 -35
6 -39 10 -4 3 -14 2 -24 -3 -10 -5 -20 -7 -23 -4 -2 3 -19 7 -36 9 -23 3 -30
1 -24 -8 5 -9 3 -9 -8 -2 -12 9 -33 11 -49 6 -3 -1 -29 -4 -59 -6 -30 -3 -57
-9 -60 -14 -4 -6 -12 -6 -20 -2 -8 5 -24 3 -38 -4 -14 -8 -34 -12 -44 -10 -11
2 -17 0 -14 -6 4 -5 -1 -10 -9 -10 -20 -2 -25 -3 -59 -17 -16 -7 -33 -12 -38
-12 -5 0 -9 -5 -9 -11 0 -6 -7 -8 -15 -5 -9 3 -18 -1 -21 -9 -4 -8 -12 -15
-20 -15 -8 0 -14 -5 -14 -11 0 -5 -4 -8 -8 -5 -5 3 -18 -2 -28 -12 -10 -9 -35
-29 -54 -43 -38 -29 -123 -109 -115 -109 3 0 -4 -10 -15 -23 -43 -47 -48 -53
-54 -74 -4 -13 -12 -23 -17 -23 -5 0 -8 -3 -7 -7 1 -5 -9 -28 -21 -53 -13 -25
-24 -47 -24 -50 0 -3 -5 -18 -11 -35 -5 -16 -9 -33 -8 -37 1 -5 -2 -8 -7 -8
-5 0 -7 -9 -4 -20 3 -12 0 -20 -6 -20 -7 0 -9 -5 -5 -13 4 -6 -10 6 -31 28
-22 22 -38 40 -37 40 1 0 -59 63 -134 140 -135 139 -165 175 -144 175 5 0 19
9 30 20 11 11 17 20 14 20 -8 0 90 89 99 90 4 0 7 7 7 16 0 8 4 13 9 9 5 -3
12 -1 16 5 3 5 0 10 -7 11 -7 0 -3 4 10 9 12 5 22 14 22 20 0 6 3 9 8 7 4 -3
16 4 27 15 20 19 20 19 0 13 -11 -4 -8 1 7 9 15 9 26 22 24 29 -1 6 -1 9 1 5
3 -5 9 -8 14 -8 6 0 8 4 5 9 -3 5 1 12 10 15 8 3 12 10 9 16 -3 6 1 7 10 4 10
-4 15 -2 13 7 -2 8 3 13 11 11 9 -2 11 3 7 13 -3 9 -2 13 4 10 6 -3 13 1 16 9
3 9 10 13 15 10 5 -3 9 2 9 11 0 10 5 13 12 9 8 -5 9 -2 5 10 -4 9 -3 14 2 11
5 -3 17 5 25 17 9 12 16 19 16 14 0 -5 9 1 20 14 11 13 20 27 20 32 0 5 4 7 9
3 5 -3 12 4 16 15 4 11 11 18 16 15 5 -4 9 1 9 10 0 9 4 14 9 11 9 -6 26 22
23 36 -1 4 6 4 15 1 11 -4 14 -3 9 5 -4 7 -1 12 9 12 9 0 14 4 11 9 -3 5 1 12
10 15 8 3 12 11 8 17 -4 8 -3 9 4 5 7 -4 12 -3 12 3 0 5 10 8 23 6 12 -2 34
-6 49 -9 14 -2 35 -9 45 -14 10 -5 24 -7 32 -4 8 2 11 1 8 -4 -3 -5 9 -10 26
-10 18 -1 55 -5 82 -8 44 -6 212 -11 225 -6 7 3 47 8 98 13 23 2 45 7 49 10 3
4 17 7 30 7 12 0 23 3 23 8 0 7 63 32 88 34 6 1 12 5 12 10 0 4 6 8 13 8 15 0
57 33 117 91 50 50 104 150 114 213 4 21 9 42 12 47 3 5 0 9 -6 9 -6 0 -8 5
-3 13 11 18 10 67 -2 67 -5 0 -5 4 2 8 7 4 9 13 4 21 -5 7 -6 22 -4 32 3 10 1
19 -5 19 -6 0 -8 9 -5 20 3 12 0 20 -6 20 -7 0 -9 5 -6 10 3 6 2 10 -4 10 -6
0 -8 6 -5 13 2 7 -6 24 -18 37 -13 14 -21 25 -18 26 3 2 -16 25 -42 53 -27 28
-48 49 -48 46 0 -3 -15 5 -32 18 -18 13 -55 34 -83 47 -51 24 -66 30 -120 48
-16 6 -39 14 -50 18 -11 4 -23 7 -27 6 -4 -1 -23 5 -43 14 -20 8 -40 12 -45 9
-6 -4 -10 -1 -10 5 0 6 -4 9 -9 5 -5 -3 -12 -1 -15 4 -5 7 -64 23 -81 21 -3 0
-28 11 -55 25 -27 14 -53 26 -57 28 -16 5 -70 62 -66 70 2 4 0 7 -5 7 -5 0
-12 14 -14 30 -3 17 -2 30 1 30 3 0 7 11 7 25 1 13 8 30 15 37 25 24 90 58
100 53 5 -4 9 -2 9 2 0 10 130 9 175 -2 17 -4 39 -8 50 -10 11 -2 20 -4 20 -5
0 -1 8 -3 18 -5 10 -2 26 -7 35 -11 9 -4 22 -8 27 -9 33 -5 245 -103 256 -119
4 -5 10 1 14 13 3 11 11 21 16 21 5 0 8 3 7 8 -3 15 15 62 24 62 5 0 6 5 3 10
-3 6 -1 10 4 10 6 0 10 3 9 8 -4 14 13 52 23 52 6 0 8 4 5 9 -3 4 1 17 9 27 8
10 15 27 15 37 0 9 4 17 10 17 5 0 7 7 4 15 -4 9 -1 15 7 15 8 0 -3 11 -23 25
-20 14 -42 25 -47 25 -6 0 -11 4 -11 10 0 5 -3 9 -7 8 -5 -1 -21 5 -38 12 -16
7 -32 14 -35 15 -3 1 -18 7 -33 13 -16 7 -34 12 -41 12 -6 0 -16 4 -22 10 -5
5 -23 12 -39 14 -17 3 -46 9 -65 14 -19 5 -38 9 -42 10 -5 1 -9 3 -10 3 -4 2
-58 7 -119 12 -31 2 -61 7 -68 11 -6 4 -11 4 -11 -1 0 -4 -28 -8 -63 -9 -76
-1 -129 -6 -142 -14 -5 -3 -23 -7 -40 -9 -16 -2 -36 -8 -42 -13 -7 -6 -13 -7
-13 -4 0 4 -10 1 -22 -6 -13 -7 -29 -11 -35 -10 -7 2 -13 -3 -13 -9 0 -7 -3
-9 -6 -6 -4 4 -20 -3 -35 -14 -16 -11 -29 -18 -29 -15 0 3 -9 -2 -19 -11 -10
-10 -36 -34 -57 -53 -20 -19 -34 -29 -29 -21 6 10 4 12 -6 5 -8 -4 -20 -9 -27
-10 -11 -2 -11 0 0 14 7 9 8 13 2 9 -6 -3 -17 5 -24 18 -10 19 -16 22 -27 13
-10 -8 -12 -7 -8 5 4 9 -2 21 -14 29 -12 8 -18 18 -13 23 4 4 -1 5 -11 2 -11
-4 -16 -3 -12 3 3 6 1 10 -5 10 -6 0 -8 5 -4 12 5 7 2 9 -9 5 -11 -4 -14 -2
-10 9 3 7 0 14 -7 14 -6 0 -8 5 -4 13 5 7 0 6 -11 -3 -10 -8 -16 -10 -12 -3 7
12 -36 63 -53 63 -5 0 -7 7 -4 15 4 9 0 15 -10 15 -9 0 -16 5 -16 11 0 5 -4 7
-10 4 -6 -3 -7 1 -4 9 6 14 -5 21 -28 17 -5 0 -7 3 -5 8 4 15 -43 71 -60 71
-9 0 -14 3 -10 6 9 9 -35 54 -46 47 -6 -3 -7 -1 -3 5 3 6 -2 16 -13 21 -30 17
-35 44 -11 63 12 10 20 18 17 18 -3 0 6 13 21 28 15 15 28 27 30 26 6 -3 68
61 65 68 -2 4 5 9 14 13 10 3 33 24 51 47 17 22 32 38 32 35 0 -3 19 15 43 40
46 49 49 52 90 88 15 14 26 25 23 25 -3 0 21 25 54 55 33 30 58 55 55 55 -3 0
9 13 27 29 l32 29 18 -52 c10 -28 20 -60 22 -71 2 -11 9 -31 14 -45 10 -24 17
-46 21 -62 1 -4 8 -23 17 -43 8 -19 12 -35 9 -35 -3 0 1 -13 10 -30 8 -16 15
-31 14 -32 0 -2 4 -16 10 -31 6 -16 11 -35 11 -43 0 -8 5 -14 11 -14 5 0 8 -4
4 -10 -3 -5 1 -25 9 -45 8 -19 13 -35 10 -35 -2 0 2 -13 11 -30 9 -16 13 -30
9 -30 -4 0 -1 -6 5 -14 6 -7 23 -12 38 -12 16 1 36 -2 47 -7 12 -6 16 -5 12 1
-3 5 5 10 19 10 14 0 22 -4 19 -9 -3 -5 1 -6 8 -4 23 9 189 11 194 3 3 -5 13
-4 22 1 9 5 21 9 26 9 11 1 46 109 38 117 -3 3 -1 5 4 5 5 0 10 8 11 18 1 18
10 57 13 57 1 0 3 9 5 19 2 10 10 40 18 65 17 51 40 132 41 143 1 3 4 9 8 13
4 4 4 13 1 21 -3 8 0 14 6 14 7 0 11 6 10 13 -2 6 3 30 9 51 6 22 9 43 6 48
-3 4 0 8 5 8 6 0 10 3 10 8 -1 4 0 10 1 15 1 4 4 12 5 17 1 6 3 11 5 13 2 3
11 40 12 55 1 6 5 12 9 12 4 0 8 8 7 18 0 24 7 51 26 95 10 26 11 35 3 30 -9
-5 -9 -3 -1 8 9 11 23 49 28 79 1 3 5 11 9 18 5 6 6 12 3 12 -3 0 3 22 13 50
11 29 14 47 8 43 -9 -5 -9 -3 0 8 6 8 13 25 15 38 5 39 25 35 33 -6 4 -21 10
-42 13 -48 4 -5 8 -19 9 -30 2 -11 6 -27 10 -35 3 -8 7 -21 9 -29 1 -8 6 -26
10 -40 4 -14 8 -29 9 -33 2 -5 4 -11 5 -15 2 -5 4 -12 5 -18 1 -5 5 -17 8 -25
3 -8 12 -42 21 -75 8 -33 19 -75 25 -92 5 -18 7 -33 3 -33 -4 0 -2 -4 4 -8 7
-4 14 -20 15 -37 2 -16 7 -32 11 -35 4 -3 8 -17 10 -30 2 -14 7 -31 11 -37 5
-7 5 -13 1 -13 -3 0 0 -8 7 -17 12 -15 12 -16 -1 -8 -12 7 -13 6 -4 -6 11 -13
27 -61 29 -84 0 -5 3 -14 7 -20 3 -5 9 -26 14 -45 10 -46 8 -39 24 -90 8 -25
15 -52 16 -60 1 -8 6 -27 12 -41 6 -15 8 -30 5 -33 -4 -3 0 -6 7 -6 7 0 11 -3
7 -6 -3 -3 -1 -19 5 -35 8 -23 15 -29 37 -27 15 1 33 -2 40 -7 9 -5 12 -4 8 2
-4 6 4 11 18 11 14 0 22 -4 20 -9 -3 -4 7 -4 23 0 17 5 36 5 47 -1 13 -8 16
-7 11 1 -8 12 28 10 40 -2 4 -3 15 -2 25 4 14 7 19 6 19 -3 0 -10 3 -9 9 1 7
11 13 12 23 3 8 -7 19 -7 28 -2 9 6 17 5 22 -3 6 -9 8 -9 8 1 0 6 7 12 16 12
8 0 13 4 9 10 -3 5 -1 17 4 27 9 18 59 163 66 193 2 8 4 16 5 18 2 1 3 5 4 10
1 4 8 24 15 44 7 21 9 43 5 50 -4 7 -3 10 1 5 8 -6 28 38 40 88 10 44 30 95
37 95 4 0 5 9 3 20 -2 11 0 20 6 20 5 0 8 3 8 8 -1 4 0 10 1 15 1 4 3 10 4 15
10 41 52 158 58 160 4 2 5 8 2 13 -3 6 0 16 6 24 7 8 9 15 6 15 -4 0 -2 9 4
21 6 11 14 30 16 42 3 12 6 27 7 32 2 6 5 15 8 20 3 6 12 31 19 58 7 26 16 50
21 53 4 2 6 11 2 19 -3 8 -1 15 4 15 5 0 10 6 11 13 1 12 9 47 12 57 1 3 2 8
1 13 0 4 3 7 7 7 5 0 9 6 10 13 1 12 9 47 12 57 1 3 2 8 1 13 0 4 3 7 7 7 4 0
8 10 9 22 1 11 8 25 15 29 10 7 10 9 -2 9 -10 0 -11 3 -3 8 6 4 15 21 19 37 4
17 10 35 14 40 4 6 6 18 5 28 -2 9 0 17 5 17 7 0 22 56 17 64 -1 1 3 9 10 17
6 8 14 27 17 42 2 15 7 31 11 37 3 5 1 18 -4 27 -6 10 -11 14 -11 8 0 -6 -62
-9 -167 -8 -93 1 -176 -1 -185 -3 -15 -4 -21 -22 -43 -121 -3 -12 -10 -34 -15
-49 -6 -14 -8 -30 -4 -35 3 -5 1 -9 -5 -9 -5 0 -12 -18 -16 -40 -4 -22 -11
-42 -16 -46 -5 -3 -7 -9 -4 -14 3 -5 0 -21 -7 -37 -6 -15 -11 -38 -11 -50 0
-13 -4 -23 -10 -23 -6 0 -8 -2 -5 -6 3 -3 -1 -26 -9 -52 -8 -26 -17 -56 -18
-67 -2 -11 -4 -21 -5 -22 -3 -3 -4 -7 -14 -48 -4 -16 -10 -37 -13 -45 -8 -20
-13 -41 -15 -62 -1 -10 -5 -18 -8 -18 -5 0 -10 -27 -13 -67 0 -7 -4 -13 -8
-13 -3 0 -9 -12 -12 -27 -6 -32 -10 -51 -27 -113 -7 -25 -12 -46 -11 -47 0 -2
-8 -25 -18 -53 -11 -29 -14 -47 -8 -43 8 4 8 2 0 -9 -7 -8 -10 -18 -6 -21 3
-4 1 -7 -6 -7 -7 0 -9 -4 -6 -10 3 -5 2 -10 -3 -10 -12 0 -10 -32 1 -41 5 -3
1 -9 -8 -12 -9 -4 -13 -3 -10 3 3 6 1 10 -4 10 -6 0 -11 11 -11 23 0 13 -3 27
-7 31 -4 3 -8 14 -9 24 -4 30 -9 47 -17 60 -5 6 -5 17 -2 22 3 6 2 10 -3 10
-5 0 -9 6 -10 13 -1 19 -13 70 -17 77 -2 4 -7 22 -10 40 -3 18 -9 38 -13 44
-7 11 -7 13 -17 58 -3 15 -10 40 -16 55 -6 16 -13 41 -16 58 -3 16 -12 43 -20
58 -8 16 -10 27 -5 23 5 -3 -1 25 -14 61 -13 37 -21 69 -19 72 3 2 -2 15 -11
29 -11 17 -12 22 -3 16 11 -6 12 -5 3 7 -6 8 -17 37 -24 64 -12 51 -29 108
-38 135 -3 8 -7 24 -9 35 -2 11 -6 27 -10 35 -9 22 -16 52 -17 78 -1 12 -4 22
-8 22 -3 0 -9 13 -13 29 l-6 28 -184 0 c-177 0 -184 -1 -190 -21 -11 -34 -15
-50 -17 -68 -1 -10 -7 -18 -12 -18 -5 0 -7 -3 -4 -6 4 -3 2 -20 -3 -37 -6 -18
-12 -43 -15 -56 -3 -14 -7 -28 -10 -33 -3 -5 -7 -18 -10 -31 -2 -12 -7 -35
-12 -51 l-8 -29 -44 47 c-25 26 -71 74 -102 107 -32 33 -58 64 -58 71 0 6 -3
9 -6 5 -3 -3 -28 18 -54 46 -27 29 -87 92 -134 140 -47 49 -86 93 -86 99 0 5
-4 6 -10 3 -5 -3 -10 -1 -10 4 0 6 -29 40 -64 75 -36 35 -62 67 -59 70 4 3 1
6 -5 6 -15 0 -52 36 -52 51 0 5 -4 7 -10 4 -5 -3 -10 -2 -10 3 0 5 -35 45 -77
90 -43 44 -135 140 -205 214 -70 73 -162 170 -205 214 -43 45 -97 102 -119
127 -23 25 -45 43 -48 40 -3 -4 -6 -1 -6 5 0 6 -34 46 -75 88 -41 42 -75 78
-75 79 0 1 -43 46 -95 100 -52 54 -95 102 -95 107 0 5 -4 6 -10 3 -5 -3 -10
-2 -10 3 0 8 -44 55 -246 264 -41 43 -74 83 -74 89 0 7 -2 10 -6 7 -3 -3 -28
19 -57 50 -29 31 -80 84 -114 118 -35 34 -63 67 -63 73 0 6 -7 11 -16 11 -8 0
-13 4 -9 9 3 5 -4 12 -15 16 -11 3 -20 11 -20 16 0 5 -31 41 -70 79 -38 38
-70 71 -70 73 0 2 -43 47 -95 100 -53 54 -92 97 -88 97 4 0 -7 11 -25 23 -17
13 -29 27 -25 30 9 9 1 9 -13 -1z m2718 -2901 c-5 -3 -11 -19 -13 -36 -2 -16
-7 -36 -12 -42 -5 -7 -6 -13 -2 -13 4 0 2 -7 -5 -15 -7 -8 -10 -15 -7 -15 3 0
1 -15 -4 -32 -15 -48 -20 -71 -21 -85 -1 -7 -4 -13 -8 -13 -3 0 -6 -8 -7 -17
-1 -19 -10 -58 -13 -58 -2 0 -10 -36 -12 -57 -1 -10 -5 -18 -8 -18 -3 0 -7 -8
-8 -17 -1 -15 -8 -51 -11 -60 -1 -2 -1 -5 -1 -8 -1 -2 -7 -20 -16 -40 -8 -19
-11 -35 -8 -35 4 0 1 -6 -5 -13 -6 -8 -8 -17 -4 -20 3 -4 0 -13 -6 -21 -7 -8
-10 -20 -7 -25 4 -5 2 -12 -4 -16 -6 -4 -8 -10 -5 -15 3 -5 1 -11 -5 -15 -6
-4 -8 -11 -5 -16 4 -5 3 -9 -2 -9 -4 0 -9 -17 -11 -38 -1 -20 -7 -38 -12 -40
-5 -2 -6 -10 -3 -18 3 -8 1 -14 -5 -14 -8 0 -13 11 -27 60 -1 3 -5 21 -9 40
-5 19 -11 40 -15 45 -3 6 -6 18 -7 28 -1 9 -2 19 -3 22 0 3 -1 7 -2 10 0 2 -9
27 -19 55 -11 30 -14 47 -7 43 8 -4 7 -1 -1 9 -7 9 -15 25 -17 37 -3 12 -7 30
-10 41 -3 11 -7 29 -9 40 -3 11 -7 24 -11 30 -7 11 357 380 369 373 4 -3 4 -8
-2 -12z m-1091 -1348 c13 -16 12 -17 -3 -4 -10 7 -18 15 -18 17 0 8 8 3 21
-13z m-1901 -607 c0 -2 -8 -10 -17 -17 -16 -13 -17 -12 -4 4 13 16 21 21 21
13z m-3 -221 c0 -8 -4 -12 -9 -9 -5 3 -6 10 -3 15 9 13 12 11 12 -6z m-141
-31 c1 -9 0 -13 -4 -10 -3 4 -7 14 -8 22 -1 9 0 13 4 10 3 -4 7 -14 8 -22z
m60 -26 c3 -4 -1 -5 -10 -4 -8 1 -18 5 -22 8 -3 4 1 5 10 4 8 -1 18 -5 22 -8z
m19 -37 c-9 -8 -36 -10 -30 -2 2 4 11 8 20 8 8 0 13 -3 10 -6z m-40 -40 c3 -5
2 -12 -3 -15 -5 -3 -9 1 -9 9 0 17 3 19 12 6z m-35 -41 c0 -5 -2 -10 -4 -10
-3 0 -8 5 -11 10 -3 6 -1 10 4 10 6 0 11 -4 11 -10z m40 0 c0 -5 -2 -10 -4
-10 -3 0 -8 5 -11 10 -3 6 -1 10 4 10 6 0 11 -4 11 -10z m197 -35 c0 -8 -4
-12 -9 -9 -5 3 -6 10 -3 15 9 13 12 11 12 -6z m-117 -5 c0 -5 -2 -10 -4 -10
-3 0 -8 5 -11 10 -3 6 -1 10 4 10 6 0 11 -4 11 -10z m40 0 c0 -5 -2 -10 -4
-10 -3 0 -8 5 -11 10 -3 6 -1 10 4 10 6 0 11 -4 11 -10z m-156 -18 c3 -5 -1
-9 -9 -9 -8 0 -12 4 -9 9 3 4 7 8 9 8 2 0 6 -4 9 -8z m211 -10 c-3 -3 -11 0
-18 7 -9 10 -8 11 6 5 10 -3 15 -9 12 -12z m-195 -16 c0 -2 -8 -10 -17 -17
-16 -13 -17 -12 -4 4 13 16 21 21 21 13z m155 -16 c3 -5 1 -10 -4 -10 -6 0
-11 5 -11 10 0 6 2 10 4 10 3 0 8 -4 11 -10z m-240 -40 c1 -10 -2 -17 -6 -14
-4 2 -7 13 -6 24 2 23 10 17 12 -10z m42 13 c0 -9 -4 -10 -14 -2 -7 6 -13 12
-13 14 0 1 6 2 13 2 8 0 14 -6 14 -14z m157 -11 c3 -5 -1 -9 -9 -9 -8 0 -12 4
-9 9 3 4 7 8 9 8 2 0 6 -4 9 -8z m201 -2 c3 -5 1 -10 -4 -10 -6 0 -11 5 -11
10 0 6 2 10 4 10 3 0 8 -4 11 -10z m-395 -34 c0 -3 -4 -8 -10 -11 -5 -3 -10
-1 -10 4 0 6 5 11 10 11 6 0 10 -2 10 -4z m77 -11 c0 -8 -4 -12 -9 -9 -5 3 -6
10 -3 15 9 13 12 11 12 -6z m-6 -62 c13 -16 12 -17 -3 -4 -10 7 -18 15 -18 17
0 8 8 3 21 -13z m129 3 c0 -2 -6 -9 -14 -15 -11 -9 -16 -9 -22 0 -4 7 -3 9 4
5 6 -3 13 -2 17 4 6 10 15 14 15 6z m2990 -23 c16 -15 27 -30 24 -35 -3 -4 -1
-8 4 -8 5 0 9 -6 10 -12 0 -7 3 -22 5 -33 2 -11 2 -24 -2 -30 -3 -5 -6 -12 -7
-15 -6 -34 -18 -59 -25 -54 -5 3 -9 1 -9 -5 0 -13 -60 -46 -77 -43 -7 2 -13
-1 -13 -5 0 -5 -17 -8 -37 -8 -21 1 -46 -3 -55 -7 -12 -6 -18 -5 -18 4 0 9 -3
9 -11 1 -8 -8 -19 -9 -38 -2 -14 6 -27 10 -28 10 -2 -1 -11 -1 -20 -1 -15 1
-14 4 5 20 13 11 21 24 17 30 -4 6 1 7 11 3 12 -4 15 -3 10 5 -4 7 -1 12 8 12
9 0 16 7 16 16 0 9 5 12 12 8 8 -5 9 -2 5 10 -4 9 -3 15 2 12 12 -8 34 21 27
33 -4 5 -2 13 4 16 6 4 10 3 9 -2 -4 -22 4 -20 31 9 17 17 30 35 30 40 0 5 5
6 10 3 6 -3 10 1 10 9 0 8 9 18 20 21 11 3 20 11 20 16 0 17 21 9 50 -18z
m-3130 -17 c0 -2 -8 -10 -17 -17 -16 -13 -17 -12 -4 4 13 16 21 21 21 13z m80
0 c0 -2 -8 -10 -17 -17 -16 -13 -17 -12 -4 4 13 16 21 21 21 13z m54 -25 c-2
-3 -12 3 -22 13 -16 17 -16 18 5 5 12 -7 20 -15 17 -18z m-183 2 c13 -16 12
-17 -3 -4 -10 7 -18 15 -18 17 0 8 8 3 21 -13z m55 -11 c-17 -16 -18 -16 -5 5
7 12 15 20 18 17 3 -2 -3 -12 -13 -22z m2994 22 c0 -8 -19 -13 -24 -6 -3 5 1
9 9 9 8 0 15 -2 15 -3z m-2703 -29 c0 -8 -4 -12 -9 -9 -4 3 -8 9 -8 15 0 5 4
9 8 9 5 0 9 -7 9 -15z m-260 -10 c0 -8 -3 -13 -5 -10 -3 3 -12 -1 -21 -7 -10
-8 -9 -4 3 10 23 26 23 26 23 7z m157 -15 c-6 -6 -10 -3 -10 10 0 13 4 16 10
10 7 -7 7 -13 0 -20z m62 5 c1 -8 -1 -17 -5 -19 -4 -3 -7 6 -7 19 0 25 8 25
12 0z m-356 5 c0 -5 -5 -10 -11 -10 -5 0 -7 5 -4 10 3 6 8 10 11 10 2 0 4 -4
4 -10z m78 -27 c-6 -7 -12 -13 -13 -13 -2 0 -5 6 -8 13 -3 7 3 13 14 13 13 0
15 -3 7 -13z m316 9 c3 -5 -1 -9 -9 -9 -8 0 -12 4 -9 9 3 4 7 8 9 8 2 0 6 -4
9 -8z m-257 -17 c0 -8 -4 -12 -9 -9 -5 3 -6 10 -3 15 9 13 12 11 12 -6z m-91
-7 c3 -4 -1 -5 -10 -4 -8 1 -18 5 -22 8 -3 4 1 5 10 4 8 -1 18 -5 22 -8z m74
-13 c14 -19 14 -19 -2 -6 -10 7 -18 18 -18 24 0 6 1 8 3 6 1 -2 9 -13 17 -24z
m216 13 c3 -4 -1 -5 -10 -4 -8 1 -18 5 -22 8 -3 4 1 5 10 4 8 -1 18 -5 22 -8z
m-166 -11 c0 -2 -10 -12 -22 -23 l-23 -19 19 23 c18 21 26 27 26 19z m65 -5
c-3 -3 2 -14 12 -24 24 -27 10 -22 -15 5 -17 18 -19 24 -7 24 8 0 13 -3 10 -5z
m40 0 c-3 -3 0 -11 6 -19 17 -20 5 -16 -14 5 -15 16 -15 19 -2 19 8 0 13 -3
10 -5z m-238 -8 c-3 -3 -12 -4 -19 -1 -8 3 -5 6 6 6 11 1 17 -2 13 -5z m63 -9
c5 3 12 0 16 -7 4 -7 4 -10 -1 -6 -4 4 -13 4 -19 -2 -8 -6 -12 -2 -13 13 0 12
1 16 4 9 3 -6 9 -10 13 -7z m274 -15 c-6 -6 -10 -3 -10 10 0 13 4 16 10 10 7
-7 7 -13 0 -20z m-385 6 c9 -10 8 -15 -3 -19 -11 -4 -13 -1 -9 10 5 12 3 14
-7 8 -9 -5 -11 -4 -6 3 9 15 11 15 25 -2z m222 -3 c13 -17 13 -17 -6 -3 -11 8
-22 16 -24 17 -2 2 0 3 6 3 6 0 17 -8 24 -17z m203 9 c3 -5 -1 -9 -9 -9 -8 0
-12 4 -9 9 3 4 7 8 9 8 2 0 6 -4 9 -8z m-379 -43 c0 -32 -11 -29 -17 4 -3 13
0 24 6 24 6 0 11 -13 11 -28z m19 -5 c3 -8 2 -12 -4 -9 -6 3 -10 10 -10 16 0
14 7 11 14 -7z m146 4 c0 -3 -9 -6 -20 -5 -11 1 -20 5 -20 9 0 3 9 6 20 5 11
-1 20 -5 20 -9z m131 -11 c-10 -9 -11 -8 -5 6 3 10 9 15 12 12 3 -3 0 -11 -7
-18z m-46 -7 c-3 -5 -12 -10 -18 -10 -7 0 -6 4 3 10 19 12 23 12 15 0z m115 6
c0 -2 -7 -7 -16 -10 -8 -3 -12 -2 -9 4 6 10 25 14 25 6z m-187 -21 c-3 -9 -8
-14 -10 -11 -3 3 -2 9 2 15 9 16 15 13 8 -4z m147 12 c0 -2 -8 -11 -18 -20
-15 -14 -19 -15 -19 -2 0 8 4 12 8 9 4 -2 10 0 14 6 6 10 15 14 15 7z m-340
-19 c0 -11 -12 -10 -30 2 -12 7 -10 9 8 7 12 0 22 -5 22 -9z m60 4 c0 -5 -7
-9 -15 -9 -8 0 -12 4 -9 9 3 4 9 8 15 8 5 0 9 -4 9 -8z m97 -14 c-3 -8 -6 -5
-6 6 -1 11 2 17 5 13 3 -3 4 -12 1 -19z m63 -13 c-5 -7 -7 -15 -3 -19 4 -4 -1
-4 -11 0 -13 5 -17 4 -12 -4 5 -8 1 -10 -10 -5 -13 5 -15 3 -9 -7 6 -9 4 -11
-5 -5 -10 6 -10 11 3 20 9 7 14 15 10 19 -4 4 1 4 11 0 12 -5 17 -4 13 3 -3 5
0 10 8 10 10 0 12 -4 5 -12z m-287 -10 c-3 -9 -8 -14 -10 -11 -3 3 -2 9 2 15
9 16 15 13 8 -4z m44 0 c0 -17 -13 -20 -21 -6 -4 5 0 12 6 14 7 3 13 6 14 6 0
1 1 -6 1 -14z m60 -7 c-3 -8 -6 -5 -6 6 -1 11 2 17 5 13 3 -3 4 -12 1 -19z
m277 -5 c3 -8 1 -11 -5 -8 -5 4 -18 1 -27 -7 -15 -11 -15 -11 -5 3 7 9 11 18
8 21 -3 2 2 5 10 5 8 0 17 -7 19 -14z m-294 -23 c-8 -5 -19 -10 -25 -10 -5 0
-3 5 5 10 8 5 20 10 25 10 6 0 3 -5 -5 -10z m74 -30 c-6 -5 -24 21 -24 34 0 6
6 1 14 -10 8 -10 12 -21 10 -24z m119 25 c-3 -9 -8 -14 -10 -11 -3 3 -2 9 2
15 9 16 15 13 8 -4z m-163 -5 c-8 -5 -19 -10 -25 -10 -5 0 -3 5 5 10 8 5 20
10 25 10 6 0 3 -5 -5 -10z m90 0 c0 -5 -2 -10 -4 -10 -3 0 -8 5 -11 10 -3 6
-1 10 4 10 6 0 11 -4 11 -10z m120 0 c0 -5 -5 -10 -11 -10 -5 0 -7 5 -4 10 3
6 8 10 11 10 2 0 4 -4 4 -10z m-280 -20 c0 -5 -4 -10 -10 -10 -5 0 -10 5 -10
10 0 6 5 10 10 10 6 0 10 -4 10 -10z m194 -2 c-5 -8 -1 -9 12 -4 14 5 16 4 7
-5 -13 -13 -37 -3 -28 12 4 5 8 9 11 9 3 0 2 -5 -2 -12z m-114 -19 c0 -5 -8
-9 -17 -8 -11 0 -13 3 -5 6 6 2 9 10 6 15 -4 7 -2 8 4 4 7 -4 12 -11 12 -17z
m-110 1 c0 -5 -2 -10 -4 -10 -3 0 -8 5 -11 10 -3 6 -1 10 4 10 6 0 11 -4 11
-10z m52 -7 c-11 -18 -42 -27 -42 -11 0 6 7 8 15 4 9 -3 15 0 15 9 0 8 5 15
10 15 7 0 8 -6 2 -17z m118 7 c0 -5 -4 -10 -10 -10 -5 0 -10 5 -10 10 0 6 5
10 10 10 6 0 10 -4 10 -10z m105 0 c-3 -5 -12 -10 -18 -10 -7 0 -6 4 3 10 19
12 23 12 15 0z m112 -5 c0 -8 -4 -12 -9 -9 -4 3 -8 9 -8 15 0 5 4 9 8 9 5 0 9
-7 9 -15z m-319 -31 c0 -17 -3 -22 -8 -13 -5 6 -6 18 -3 26 8 19 11 16 11 -13z
m-64 -16 c-3 -4 4 -8 16 -8 13 0 19 4 14 12 -5 7 -3 8 5 3 17 -10 -1 -28 -24
-23 -10 1 -20 14 -22 28 -2 18 -1 21 6 10 5 -8 7 -18 5 -22z m195 29 c-2 -1
-12 -9 -22 -16 -15 -12 -17 -12 -11 3 3 9 13 16 22 16 8 0 13 -1 11 -3z m68
-52 c2 -16 1 -17 -6 -5 -5 8 -8 17 -5 21 2 4 0 10 -6 14 -5 3 -10 12 -10 18 1
17 24 -24 27 -48z m80 49 c-3 -3 -12 -4 -19 -1 -8 3 -5 6 6 6 11 1 17 -2 13
-5z m-370 -26 c-3 -8 -6 -5 -6 6 -1 11 2 17 5 13 3 -3 4 -12 1 -19z m143 7 c0
-11 -29 -11 -33 -1 -4 10 1 12 14 9 10 -3 19 -7 19 -8z m100 5 c-8 -5 -19 -10
-25 -10 -5 0 -3 5 5 10 8 5 20 10 25 10 6 0 3 -5 -5 -10z m96 -17 c-6 -6 -36
9 -36 18 0 5 9 4 20 -3 10 -7 18 -14 16 -15z m49 7 c4 -6 -1 -7 -11 -3 -13 5
-15 3 -9 -7 5 -9 4 -11 -4 -6 -6 4 -9 12 -6 17 8 12 22 12 30 -1z m-219 -26
c-7 -38 -14 -40 -12 -5 0 17 4 31 9 31 4 0 5 -12 3 -26z m41 -6 c-3 -8 -6 -5
-6 6 -1 11 2 17 5 13 3 -3 4 -12 1 -19z m-100 6 c-2 -3 -17 -7 -33 -10 -17 -2
-24 -1 -17 4 13 8 58 14 50 6z m159 -5 c3 -6 1 -16 -5 -22 -9 -9 -10 -7 -5 7
5 13 4 17 -4 12 -7 -4 -12 -2 -12 3 0 14 17 14 26 0z m84 -1 c0 -4 -4 -8 -9
-8 -6 0 -12 4 -15 8 -3 5 1 9 9 9 8 0 15 -4 15 -9z m-225 -11 c-11 -7 -21 -20
-23 -31 -2 -12 1 -16 9 -10 8 4 10 3 5 -5 -11 -17 -26 -3 -23 20 3 21 23 39
42 38 6 0 1 -5 -10 -12z m-102 -15 c-4 -15 13 -16 20 -2 3 6 4 5 3 -2 -2 -7
-9 -13 -17 -13 -8 0 -13 6 -11 13 1 6 -7 12 -19 12 -20 0 -20 -1 5 -31 29 -34
32 -44 14 -55 -8 -5 -9 -2 -5 9 4 10 -3 28 -18 45 -14 16 -21 32 -18 36 11 11
48 2 46 -12z m200 5 c-3 -5 -14 -6 -25 -4 -14 4 -18 2 -14 -9 3 -8 1 -14 -4
-14 -10 0 -14 23 -6 31 8 8 54 4 49 -4z m102 3 c3 -5 1 -10 -4 -10 -6 0 -11 5
-11 10 0 6 2 10 4 10 3 0 8 -4 11 -10z m57 -12 c-7 -7 -16 -6 -29 1 -16 11
-15 11 6 5 17 -4 21 -3 16 6 -6 9 -4 11 4 5 9 -5 9 -11 3 -17z m-305 -10 c-3
-8 -6 -5 -6 6 -1 11 2 17 5 13 3 -3 4 -12 1 -19z m221 11 c-2 -6 -7 -10 -12
-9 -4 1 -14 -7 -22 -17 -14 -17 -14 -16 -4 5 6 12 15 20 21 17 5 -4 9 -1 9 4
0 6 3 11 6 11 3 0 4 -5 2 -11z m-158 -14 c-1 -6 9 -13 22 -17 l23 -7 -23 2
c-12 1 -22 6 -22 11 1 5 -4 13 -12 18 -11 8 -11 9 0 6 8 -2 13 -8 12 -13z
m104 7 c3 -5 -1 -9 -9 -9 -8 0 -12 4 -9 9 3 4 7 8 9 8 2 0 6 -4 9 -8z m-176
-47 c0 -13 -5 -22 -10 -19 -5 3 -6 14 -3 25 5 15 3 18 -12 13 -14 -5 -15 -4
-3 4 19 14 28 7 28 -23z m248 23 c4 -6 3 -8 -3 -5 -6 4 -13 0 -17 -8 -6 -17
-26 -20 -26 -4 0 5 4 8 9 5 5 -3 11 1 15 9 7 18 12 19 22 3z m44 8 c0 -2 -7
-7 -16 -10 -8 -3 -12 -2 -9 4 6 10 25 14 25 6z m-105 -47 c6 1 10 -8 10 -19 0
-11 -4 -19 -8 -17 -5 1 -14 -9 -22 -22 -7 -14 -23 -26 -36 -28 -18 -2 -20 -1
-9 6 8 5 17 8 21 6 3 -3 11 7 18 21 6 14 16 22 21 19 6 -3 10 3 10 14 0 12 -6
20 -12 19 -7 -2 -14 8 -15 22 -2 24 -2 24 5 2 4 -13 12 -23 17 -23z m-168 9
c-3 -8 -6 -5 -6 6 -1 11 2 17 5 13 3 -3 4 -12 1 -19z m63 5 c0 -3 -7 -2 -16 1
-12 5 -14 1 -9 -17 5 -19 4 -20 -5 -4 -13 21 -5 38 15 30 8 -3 15 -7 15 -10z
m240 7 c0 -5 -4 -10 -10 -10 -5 0 -10 5 -10 10 0 6 5 10 10 10 6 0 10 -4 10
-10z m-180 -10 c0 -5 -6 -10 -13 -10 -7 0 -13 -9 -14 -20 -1 -11 3 -19 9 -17
6 1 13 -5 15 -13 4 -12 3 -12 -5 -2 -5 8 -13 13 -18 13 -16 -2 -12 39 5 49 20
12 21 12 21 0z m134 -12 c-3 -5 -15 -8 -25 -5 -13 4 -19 0 -19 -13 0 -13 6
-17 19 -13 10 3 21 1 24 -4 3 -5 -7 -8 -21 -7 -22 1 -27 6 -27 25 0 19 4 23
24 21 16 -3 21 0 16 9 -5 8 -4 10 4 5 6 -4 8 -12 5 -18z m-194 -27 c-6 -12
-16 -18 -22 -15 -7 5 -9 1 -5 -9 3 -10 2 -17 -4 -17 -6 0 -9 8 -7 18 2 9 9 16
15 15 7 -2 15 7 18 18 4 11 9 18 12 16 2 -3 0 -15 -7 -26z m212 7 c-7 -7 -12
-8 -12 -2 0 14 12 26 19 19 2 -3 -1 -11 -7 -17z m-317 3 c-3 -5 -1 -12 5 -16
5 -3 10 -11 10 -18 0 -6 -7 -2 -15 9 -17 23 -19 34 -4 34 5 0 8 -4 4 -9z m65
1 c0 -4 -9 -13 -21 -20 -12 -8 -18 -9 -15 -4 3 6 3 12 -1 15 -5 2 -2 2 5 1 6
-2 12 1 12 6 0 6 5 10 10 10 6 0 10 -3 10 -8z m120 -2 c0 -5 -4 -10 -10 -10
-5 0 -10 5 -10 10 0 6 5 10 10 10 6 0 10 -4 10 -10z m-60 -45 c0 -8 -2 -15 -4
-15 -2 0 -6 7 -10 15 -3 8 -1 15 4 15 6 0 10 -7 10 -15z m200 5 c-8 -5 -19
-10 -25 -10 -5 0 -3 5 5 10 8 5 20 10 25 10 6 0 3 -5 -5 -10z m-90 -15 c8 0
19 5 23 10 5 6 7 4 5 -5 -3 -8 -15 -14 -28 -14 -13 0 -25 6 -28 14 -2 9 0 11
5 5 4 -5 15 -10 23 -10z m-220 -5 c0 -5 -8 -10 -17 -10 -15 0 -16 2 -3 10 19
12 20 12 20 0z m50 -5 c11 -13 10 -14 -4 -9 -9 3 -16 10 -16 15 0 13 6 11 20
-6z m36 -1 c-4 -11 -2 -15 7 -11 26 10 37 -8 14 -22 -12 -8 -19 -10 -15 -6 4
5 0 13 -9 20 -9 7 -13 17 -9 23 11 18 19 14 12 -4z m169 -14 c-18 -19 -17 -20
3 -20 12 0 21 5 20 12 -2 6 5 14 15 16 9 2 17 -1 17 -7 0 -6 -7 -7 -17 -4 -11
4 -14 3 -9 -5 9 -16 -19 -26 -41 -16 -10 4 -21 6 -25 6 -5 -1 -8 3 -8 9 0 6 7
9 15 5 9 -3 20 3 27 14 7 10 14 17 17 15 2 -3 -4 -14 -14 -25z m-215 -7 c0 -3
-6 -3 -12 0 -7 2 -21 0 -32 -5 -12 -7 -22 -6 -30 3 -8 9 -8 10 1 5 7 -4 20 -3
30 2 16 9 43 6 43 -5z m154 8 c3 -5 -1 -14 -10 -22 -12 -10 -18 -9 -32 6 -9
10 -12 15 -5 11 6 -3 14 -2 18 4 8 12 22 13 29 1z m-121 -26 c4 -8 2 -17 -3
-20 -6 -4 -10 -11 -10 -17 0 -7 6 -6 15 2 10 9 15 9 15 1 0 -6 -4 -11 -9 -11
-5 0 -13 -9 -16 -20 -6 -19 -8 -18 -32 11 -14 16 -32 28 -39 25 -8 -3 -11 0
-7 9 3 8 9 12 14 9 5 -3 9 0 9 5 0 6 5 11 12 11 9 0 9 -3 1 -11 -8 -8 -5 -18
10 -35 24 -28 34 -25 17 6 -12 22 -7 50 9 50 5 0 11 -7 14 -15z m93 -22 c-6
-6 -36 9 -36 18 0 5 9 4 20 -3 10 -7 18 -14 16 -15z m-49 10 c-6 -10 19 -34
27 -26 3 4 6 1 6 -5 0 -7 -4 -12 -8 -12 -14 0 -43 36 -35 43 9 9 15 9 10 0z
m107 -4 c-2 -4 0 -9 5 -11 5 -1 2 -10 -7 -18 -14 -13 -15 -12 -9 3 4 10 0 20
-11 26 -15 9 -14 10 5 8 12 0 20 -4 17 -8z m-36 -20 c-10 -5 -18 -18 -19 -27
0 -11 -2 -12 -6 -4 -6 15 14 42 31 42 6 0 3 -5 -6 -11z m107 1 c-11 -5 -16 -9
-12 -9 10 -1 -11 -41 -21 -41 -4 0 -13 9 -20 21 -8 12 -9 18 -4 15 6 -3 12 -3
15 1 2 5 2 3 1 -4 -2 -7 1 -15 6 -18 6 -4 11 -1 11 4 1 6 3 16 4 21 1 6 3 12
4 15 0 3 9 5 19 4 14 0 14 -2 -3 -9z m-285 -20 c0 -5 -4 -10 -10 -10 -5 0 -10
5 -10 10 0 6 5 10 10 10 6 0 10 -4 10 -10z m100 0 c0 -5 -8 -10 -17 -10 -15 0
-16 2 -3 10 19 12 20 12 20 0z m-77 -44 c-4 -5 1 -7 10 -3 11 4 14 2 10 -9 -5
-14 12 -20 20 -6 2 4 3 2 1 -4 -1 -6 15 -10 37 -10 21 1 39 4 39 9 0 4 5 7 11
7 5 0 8 -4 4 -9 -3 -5 3 -12 12 -15 10 -2 3 -3 -15 -1 -25 3 -32 0 -28 -10 3
-9 0 -12 -9 -8 -8 3 -12 9 -9 14 3 5 -2 9 -11 9 -9 0 -14 -4 -11 -9 3 -5 -2
-8 -11 -7 -9 0 -18 -4 -20 -10 -2 -7 7 -10 27 -8 17 2 28 0 25 -6 -3 -5 -18
-8 -33 -7 -20 2 -27 8 -28 25 -1 12 -9 31 -18 41 -9 9 -13 21 -9 26 5 4 -1 5
-11 1 -16 -6 -17 -4 -6 9 10 12 15 13 21 3 4 -6 5 -16 2 -22z m95 18 c-16 -8
-28 -20 -28 -26 0 -6 -3 -8 -7 -5 -9 10 27 47 46 47 10 -1 5 -7 -11 -16z m67
-7 c-25 -15 -55 -17 -55 -5 0 6 6 8 14 5 8 -3 22 0 33 8 10 7 20 11 23 8 3 -2
-4 -10 -15 -16z m-105 9 c0 -3 -4 -8 -10 -11 -5 -3 -10 -1 -10 4 0 6 5 11 10
11 6 0 10 -2 10 -4z m143 -13 c-7 -2 -13 -9 -13 -14 0 -6 5 -7 10 -4 6 3 10 1
10 -4 0 -6 -4 -11 -8 -11 -5 0 -14 -10 -21 -22 -9 -18 -10 -18 -5 -3 3 11 7
29 9 40 3 26 3 25 18 24 10 0 10 -2 0 -6z m67 -3 c0 -5 -2 -10 -4 -10 -3 0 -8
5 -11 10 -3 6 -1 10 4 10 6 0 11 -4 11 -10z m-170 -10 c0 -5 -5 -10 -11 -10
-5 0 -7 5 -4 10 3 6 8 10 11 10 2 0 4 -4 4 -10z m70 -10 c0 -5 -5 -10 -11 -10
-5 0 -7 5 -4 10 3 6 8 10 11 10 2 0 4 -4 4 -10z m85 -11 c-4 -5 -13 -9 -21 -9
-14 0 -13 -2 0 -16 24 -23 19 -27 -8 -7 l-25 18 25 11 c13 5 21 14 17 19 -5 4
-2 5 5 1 7 -4 10 -12 7 -17z m-98 -51 c-3 -8 -6 -5 -6 6 -1 11 2 17 5 13 3 -3
4 -12 1 -19z m68 -3 c29 -30 29 -31 13 -41 -7 -4 -8 -3 -4 4 4 7 3 12 -3 12
-19 0 -22 -20 -5 -27 16 -6 16 -7 -2 -13 -10 -4 -19 -16 -19 -26 0 -36 -29
-21 -31 15 -1 27 0 31 8 18 5 -10 13 -15 19 -12 14 9 11 27 -3 19 -7 -4 -4 2
6 14 18 21 18 23 1 42 -26 29 -10 25 20 -5z m1575 -135 c0 -5 -2 -10 -4 -10
-3 0 -8 5 -11 10 -3 6 -1 10 4 10 6 0 11 -4 11 -10z m1455 -255 c11 -2 20 -4
20 -5 0 -1 11 -3 24 -6 52 -9 151 -66 204 -117 32 -29 57 -59 57 -65 0 -6 8
-16 18 -21 9 -6 13 -11 7 -11 -6 0 -6 -3 1 -8 14 -10 54 -98 54 -120 0 -10 3
-22 7 -26 4 -4 8 -24 9 -44 1 -20 3 -39 4 -42 6 -16 -2 -125 -11 -141 -5 -11
-8 -23 -5 -27 3 -5 -1 -21 -9 -35 -8 -15 -15 -31 -16 -35 -5 -20 -25 -58 -34
-64 -5 -4 -6 -8 -2 -8 9 0 5 -5 -65 -82 -28 -32 -57 -58 -65 -58 -7 0 -13 -4
-13 -9 0 -7 -80 -52 -100 -57 -3 0 -13 -4 -22 -8 -10 -5 -29 -9 -43 -10 -14 0
-25 -3 -25 -6 0 -3 -38 -6 -85 -6 -47 0 -85 4 -85 7 0 4 -13 7 -28 7 -33 -1
-154 56 -196 92 -52 44 -76 71 -76 82 0 6 -3 8 -7 5 -8 -9 -58 78 -55 96 1 4
-2 7 -7 7 -10 0 -18 22 -36 100 -2 8 -4 15 -6 15 -11 0 -11 177 0 185 4 3 7
20 6 38 -1 17 2 32 7 32 4 0 8 6 8 14 0 18 58 127 79 147 9 9 25 27 37 40 30
34 68 64 77 61 4 -1 7 2 7 7 0 9 106 59 143 67 88 20 149 22 222 9z"/>
<path d="M2825 5230 c-3 -5 -2 -10 4 -10 5 0 13 5 16 10 3 6 2 10 -4 10 -5 0
-13 -4 -16 -10z"/>
<path d="M2710 5204 c0 -8 5 -12 10 -9 6 4 8 11 5 16 -9 14 -15 11 -15 -7z"/>
<path d="M2870 4940 c0 -5 5 -10 10 -10 6 0 10 5 10 10 0 6 -4 10 -10 10 -5 0
-10 -4 -10 -10z"/>
<path d="M7588 8878 c-10 -6 -10 -8 2 -8 13 0 13 -1 0 -10 -13 -9 -13 -10 0
-10 13 0 13 -1 0 -10 -13 -9 -13 -10 0 -10 13 0 13 -1 0 -10 -8 -5 -10 -10 -5
-10 7 0 8 -250 5 -741 -3 -407 -2 -743 1 -745 4 -2 3 -20 -1 -39 -7 -30 -5
-37 12 -46 11 -6 35 -8 54 -6 19 3 37 1 40 -4 3 -5 14 -5 25 1 14 8 19 7 19
-2 0 -9 3 -9 10 2 7 11 12 12 21 3 8 -8 18 -9 31 -2 13 7 18 6 18 -3 0 -9 3
-9 10 2 7 11 12 12 21 3 8 -8 18 -9 31 -2 13 7 18 6 18 -3 0 -10 3 -9 9 1 7
11 13 12 23 3 8 -7 19 -7 28 -2 9 6 17 5 22 -3 6 -9 8 -8 8 2 0 11 3 11 17 0
9 -8 14 -9 10 -3 -4 7 2 12 18 12 14 0 22 -5 18 -11 -3 -6 -1 -7 5 -3 17 10
175 11 191 1 9 -5 12 -4 8 2 -4 6 4 11 18 11 14 0 22 -5 18 -11 -3 -6 -1 -7 5
-3 17 10 175 11 191 1 9 -5 12 -4 8 2 -4 6 4 11 18 11 14 0 22 -4 20 -9 -3 -4
7 -4 23 0 17 5 36 5 47 -1 13 -8 16 -7 11 1 -8 12 28 10 40 -2 4 -3 15 -2 25
4 14 7 19 6 19 -3 0 -9 3 -9 10 2 7 11 12 12 21 3 8 -8 18 -9 31 -2 13 7 18 6
18 -3 0 -9 3 -9 10 2 7 11 12 12 20 4 15 -15 70 4 70 24 0 7 -4 10 -10 7 -6
-4 -7 2 -2 17 6 18 9 207 3 253 -1 6 -47 11 -111 12 -77 1 -108 -2 -104 -9 5
-7 2 -8 -7 -2 -8 5 -160 10 -339 10 -179 1 -329 2 -335 3 -10 1 -11 322 -1
347 3 8 38 11 113 10 64 -1 114 2 122 8 9 7 12 7 9 1 -8 -13 523 -14 538 0 14
12 14 35 0 35 -6 0 -5 4 2 9 8 4 14 12 14 16 0 4 -6 12 -14 16 -7 5 -8 9 -2 9
6 0 11 7 11 15 0 8 -5 15 -11 15 -6 0 -6 4 2 12 7 7 8 17 2 29 -6 11 -6 20 -1
23 7 5 8 41 1 41 -1 0 -3 10 -4 23 -2 12 0 22 4 22 4 0 7 7 7 15 0 8 -4 15 -9
15 -5 0 -7 4 -4 8 6 9 -47 7 -63 -3 -6 -3 -11 -1 -11 6 0 9 -3 9 -14 0 -10 -8
-16 -9 -21 -1 -4 7 -12 7 -26 0 -14 -8 -19 -7 -19 1 0 9 -3 9 -14 0 -10 -8
-16 -9 -21 -1 -4 7 -12 7 -26 0 -14 -8 -19 -7 -19 1 0 9 -3 9 -14 0 -10 -8
-16 -9 -21 -1 -4 7 -12 7 -26 0 -14 -8 -19 -7 -19 1 0 9 -3 9 -14 0 -10 -8
-16 -9 -21 -1 -4 7 -12 7 -26 0 -14 -8 -19 -7 -19 1 0 9 -3 9 -14 0 -10 -8
-16 -9 -21 -1 -4 7 -12 7 -26 0 -14 -8 -19 -7 -19 1 0 9 -3 9 -14 0 -10 -8
-16 -9 -21 -1 -4 7 -12 7 -26 0 -14 -8 -19 -7 -19 1 0 9 -3 9 -14 0 -10 -8
-16 -9 -21 -1 -4 7 -12 7 -26 0 -14 -8 -19 -7 -19 1 0 9 -3 9 -14 0 -10 -8
-16 -9 -21 -1 -4 7 -12 7 -26 0 -13 -8 -19 -7 -19 0 0 6 -5 8 -12 4 -18 -11
-48 -12 -54 -2 -7 12 -7 335 0 347 4 6 18 6 36 1 17 -5 28 -6 26 -2 -6 9 526
8 541 -1 6 -4 14 -3 17 2 6 9 43 7 74 -4 7 -3 11 -1 8 3 -3 5 32 8 77 7 45 -1
87 0 92 2 6 2 9 61 7 156 l-3 154 -624 0 c-343 0 -630 -4 -637 -9z"/>
<path d="M6597 6958 c-15 -5 -24 -14 -21 -20 5 -8 6 -81 3 -150 -1 -7 0 -33 0
-58 0 -25 1 -52 0 -60 0 -8 0 -53 0 -100 0 -47 0 -92 0 -100 0 -8 0 -35 0 -60
0 -25 1 -52 0 -60 0 -8 0 -53 0 -100 0 -47 0 -92 0 -100 0 -8 0 -35 0 -60 0
-25 1 -52 0 -60 0 -8 0 -53 0 -100 0 -47 0 -92 0 -100 0 -8 0 -35 0 -60 0 -25
1 -52 0 -60 0 -13 -1 -312 0 -374 0 -19 24 -42 28 -28 2 4 281 5 622 2 406 -3
621 -2 627 5 10 11 11 291 1 302 -4 3 -206 7 -449 8 -244 1 -447 2 -452 3 -5
1 -3 8 3 15 6 8 8 16 6 19 -12 11 -13 48 -2 48 8 0 8 3 -1 12 -7 7 -8 17 -2
29 7 12 6 20 0 24 -8 5 -8 11 0 20 7 9 8 15 1 19 -7 5 -7 15 -1 31 5 14 6 25
1 25 -4 0 -8 7 -8 15 0 8 3 15 7 15 4 0 7 7 7 15 0 8 -5 15 -10 15 -5 0 -4 7
3 15 8 10 9 15 2 15 -6 0 -9 6 -7 13 6 14 131 17 152 4 6 -4 14 -4 17 1 6 10
168 8 186 -3 8 -5 11 -4 7 2 -7 11 92 11 110 0 5 -3 13 -3 17 1 11 10 79 10
94 -1 6 -5 12 -5 12 -1 0 5 45 9 100 9 l100 -1 1 30 c1 17 2 86 3 152 1 122
-6 151 -34 134 -8 -5 -22 -4 -32 1 -11 6 -18 6 -18 1 0 -11 -51 -9 -68 2 -7 4
-12 3 -12 -2 0 -11 -50 -9 -68 2 -7 4 -12 3 -12 -2 0 -11 -50 -9 -68 2 -7 4
-12 3 -12 -2 0 -11 -50 -9 -68 2 -7 4 -12 3 -12 -2 0 -11 -50 -9 -68 2 -7 4
-12 3 -12 -2 0 -11 -50 -9 -68 2 -7 4 -12 3 -12 -2 0 -11 -50 -9 -68 2 -7 4
-12 3 -12 -1 0 -10 -105 -9 -137 1 -21 7 -24 20 -10 43 4 6 3 14 -3 18 -7 4
-7 12 0 25 7 13 7 21 0 25 -8 5 -8 11 0 20 7 9 8 15 1 19 -7 5 -7 15 -1 31 5
14 6 25 1 25 -4 0 -8 7 -8 15 0 8 4 15 9 15 5 0 4 9 -2 20 -8 15 -8 20 1 20 8
0 8 4 -1 15 -10 12 -10 15 1 15 11 0 11 2 1 9 -31 19 18 28 153 27 77 -1 150
2 163 6 13 4 21 4 18 0 -2 -4 30 -7 72 -6 44 1 83 -3 91 -10 11 -8 13 -8 8 0
-5 9 23 11 101 10 61 -1 113 3 121 9 11 7 13 7 8 -1 -4 -7 14 -10 58 -8 47 2
64 -1 60 -9 -3 -7 2 -1 11 12 20 26 26 61 11 61 -5 0 -5 6 2 13 8 10 7 17 -1
25 -7 7 -8 12 -2 12 11 0 12 49 1 68 -5 6 -4 12 1 12 7 0 8 33 2 50 -1 3 -1
10 0 15 5 26 7 55 2 50 -3 -2 -11 0 -19 6 -10 9 -13 8 -13 0 0 -7 -5 -9 -12
-5 -17 11 -58 11 -58 1 0 -4 -9 -3 -20 3 -11 6 -20 7 -20 2 0 -10 -36 -9 -46
1 -4 4 -13 2 -21 -4 -10 -9 -13 -8 -13 1 0 10 -3 10 -15 0 -12 -10 -15 -10
-15 0 0 9 -3 10 -13 1 -8 -6 -17 -8 -20 -4 -10 10 -57 10 -57 0 0 -4 -9 -3
-20 3 -11 6 -20 7 -20 2 0 -10 -36 -9 -46 1 -4 4 -13 2 -21 -4 -7 -6 -13 -8
-13 -3 0 5 -11 9 -25 9 -14 0 -25 -4 -25 -8 0 -5 -5 -5 -12 -1 -17 11 -58 11
-58 1 0 -4 -9 -3 -20 3 -11 6 -20 7 -20 2 0 -10 -36 -9 -46 1 -4 4 -13 2 -21
-4 -10 -9 -13 -8 -13 1 0 10 -3 10 -15 0 -12 -10 -15 -10 -15 0 0 9 -3 10 -13
1 -8 -6 -17 -8 -20 -4 -10 10 -57 10 -57 0 0 -4 -9 -3 -20 3 -11 6 -20 7 -20
2 0 -10 -36 -9 -46 1 -4 4 -13 2 -21 -4 -7 -6 -13 -8 -13 -3 0 5 -11 9 -25 9
-14 0 -25 -4 -25 -8 0 -5 -5 -5 -12 -1 -17 11 -58 11 -58 1 0 -4 -9 -3 -20 3
-11 6 -20 7 -20 2 0 -10 -36 -9 -46 1 -4 4 -13 2 -21 -4 -9 -9 -13 -8 -13 0 0
9 -5 9 -21 0 -15 -8 -19 -8 -15 0 4 6 6 11 4 10 -2 0 -15 -5 -31 -11z"/>
<path d="M8175 6960 c-4 -6 -10 -8 -14 -6 -4 3 -7 -365 -7 -817 l1 -822 628
-5 c345 -3 627 -2 627 2 0 4 6 5 14 2 17 -7 30 12 15 22 -8 4 -7 9 2 15 12 7
12 9 0 9 -11 0 -11 3 -1 15 10 12 10 15 0 15 -9 0 -9 4 1 17 10 11 10 14 2 9
-7 -4 -13 -3 -13 3 0 5 5 13 11 17 8 4 7 9 -2 16 -11 8 -11 11 -1 15 10 4 10
8 1 19 -9 11 -8 14 2 14 11 0 11 2 -1 10 -12 8 -13 11 -1 19 9 6 10 10 2 16
-9 5 -9 11 1 23 11 13 11 14 0 8 -10 -6 -11 -1 -6 18 5 23 3 26 -22 27 -16 0
-220 2 -454 2 l-425 2 -1 36 c-1 20 -4 41 -8 48 -4 6 -4 11 1 11 4 0 8 11 8
25 0 14 -4 25 -8 25 -5 0 -5 5 -1 11 4 7 7 55 8 107 l1 95 45 2 c25 2 53 -2
64 -7 11 -6 16 -6 13 -1 -4 6 7 10 24 11 20 0 27 -3 22 -11 -5 -9 -3 -9 8 -1
16 11 58 12 76 1 6 -4 14 -4 17 1 6 9 207 9 222 -1 6 -3 14 -3 18 1 11 10 79
10 94 -1 6 -5 12 -5 12 0 0 10 130 11 147 0 22 -14 27 18 28 171 l0 153 -22
-4 c-13 -2 -23 1 -23 7 0 8 -3 8 -8 0 -8 -11 -51 -12 -70 0 -7 4 -12 3 -12 -2
0 -11 -50 -9 -68 2 -7 4 -12 3 -12 -2 0 -11 -50 -9 -68 2 -7 4 -12 3 -12 -1 0
-10 -173 -8 -189 1 -6 4 -11 3 -11 -1 0 -10 -213 -9 -228 1 -6 3 -12 2 -14 -3
-1 -5 -15 -7 -30 -4 l-28 5 2 97 c1 53 -2 102 -6 109 -4 7 -3 12 3 12 7 0 7 8
1 25 -7 18 -6 25 3 25 8 0 7 4 -3 10 -9 6 -10 10 -3 10 7 0 11 12 10 28 -2 26
0 27 48 27 28 0 56 5 64 9 9 6 12 5 7 -2 -7 -11 68 -7 87 5 6 4 7 1 2 -7 -6
-9 -2 -10 15 -5 16 5 20 4 15 -5 -4 -7 5 -4 21 6 15 11 25 14 21 7 -6 -9 3
-11 35 -7 23 3 46 8 51 11 6 4 7 1 2 -7 -6 -9 -2 -10 15 -5 17 6 21 4 14 -6
-6 -11 -5 -12 7 -3 8 7 56 11 124 10 61 -1 120 2 133 6 13 4 21 4 18 0 -2 -4
22 -7 55 -7 32 0 59 4 59 9 0 6 7 1 16 -10 8 -10 12 -13 8 -5 -5 10 -3 13 7 9
8 -3 23 -2 34 2 19 7 20 16 19 156 0 108 -4 148 -12 147 -7 -2 -12 1 -12 7 0
6 -9 6 -25 0 -16 -6 -26 -6 -31 1 -4 6 -11 6 -20 -2 -8 -6 -14 -8 -14 -3 0 5
-11 9 -25 9 -14 0 -25 -4 -25 -8 0 -5 -5 -5 -12 -1 -17 11 -58 11 -58 1 0 -4
-9 -3 -20 3 -11 6 -20 7 -20 2 0 -10 -36 -9 -46 1 -4 4 -13 2 -21 -4 -10 -9
-13 -8 -13 1 0 10 -3 10 -15 0 -12 -10 -15 -10 -15 0 0 9 -3 10 -13 1 -8 -6
-17 -8 -20 -4 -10 10 -57 10 -57 0 0 -4 -9 -3 -20 3 -11 6 -20 7 -20 2 0 -10
-36 -9 -46 1 -4 4 -13 2 -21 -4 -7 -6 -13 -8 -13 -3 0 5 -11 9 -25 9 -14 0
-25 -4 -25 -8 0 -5 -5 -5 -12 -1 -17 11 -58 11 -58 1 0 -4 -9 -3 -20 3 -11 6
-20 7 -20 2 0 -10 -36 -9 -46 1 -4 4 -13 2 -21 -4 -10 -9 -13 -8 -13 1 0 10
-3 10 -15 0 -12 -10 -15 -10 -15 0 0 9 -3 10 -13 1 -8 -6 -17 -8 -20 -4 -10
10 -57 10 -57 0 0 -4 -9 -3 -20 3 -11 6 -20 7 -20 2 0 -10 -36 -9 -46 1 -4 4
-13 2 -21 -4 -7 -6 -13 -8 -13 -3 0 5 -11 9 -25 9 -14 0 -25 -4 -25 -8 0 -5
-5 -5 -12 -1 -17 11 -58 11 -58 1 0 -4 -9 -3 -19 3 -14 7 -22 7 -26 0z"/>
<path d="M2681 5007 c-13 -19 -12 -21 1 -9 13 10 15 9 13 -12 -2 -14 2 -27 9
-29 8 -3 12 5 11 24 -2 42 -17 53 -34 26z"/>
<path d="M2727 5003 c-13 -12 -7 -26 6 -15 9 8 17 8 27 0 12 -8 12 -9 -2 -4
-20 6 -23 -4 -8 -22 7 -9 7 -9 -2 -2 -19 16 -29 12 -17 -8 18 -29 47 -23 45
11 -2 34 -31 58 -49 40z"/>
<path d="M6985 4963 c-11 -26 -12 -113 -2 -113 4 0 5 -5 1 -11 -10 -16 -12
-89 -2 -95 4 -3 5 -13 0 -22 -7 -15 -8 -92 -2 -117 1 -5 2 -12 1 -15 -7 -19
-6 -82 1 -86 4 -3 5 -10 2 -16 -10 -16 -11 -118 -1 -118 4 0 5 -5 1 -11 -10
-16 -12 -89 -2 -95 4 -3 5 -13 0 -22 -7 -15 -8 -92 -2 -117 1 -5 2 -12 1 -15
-7 -19 -6 -82 1 -86 4 -3 5 -10 2 -16 -10 -16 -11 -118 -1 -118 4 0 5 -5 1
-11 -10 -16 -12 -89 -3 -95 5 -2 5 -12 2 -21 -5 -12 -8 -363 -4 -434 1 -18 31
-21 43 -4 5 6 8 4 8 -5 0 -13 1 -13 10 0 5 8 10 10 10 3 0 -12 70 -10 91 3 7
4 9 3 6 -3 -9 -14 65 -12 75 2 5 6 8 6 8 -1 0 -12 29 -12 48 0 6 4 12 3 12 -1
0 -5 9 -9 19 -10 24 -2 42 42 31 73 -5 11 -4 27 0 34 5 7 4 24 -1 37 -5 14 -5
23 1 23 12 0 9 22 -4 31 -4 4 -4 15 2 25 6 11 7 27 1 41 -5 14 -5 23 1 23 12
0 9 22 -4 31 -5 4 -5 13 0 22 5 9 7 99 4 201 -3 102 -2 186 2 186 10 0 6 23
-6 31 -4 4 -4 15 2 25 6 11 7 27 1 41 -5 14 -5 23 1 23 12 0 9 22 -4 31 -4 4
-4 15 2 25 6 11 7 27 1 41 -5 14 -5 23 1 23 12 0 9 22 -4 31 -4 4 -4 14 1 24
9 16 12 16 31 -6 12 -12 34 -41 49 -63 15 -23 34 -45 40 -49 7 -4 13 -13 13
-18 0 -6 6 -16 13 -24 19 -20 40 -47 67 -85 13 -19 29 -40 35 -47 31 -37 35
-43 31 -43 -3 0 5 -11 17 -24 44 -47 65 -75 59 -81 -3 -3 0 -5 6 -5 7 0 12 -4
12 -9 0 -6 16 -27 35 -48 19 -21 35 -41 35 -45 0 -7 29 -44 58 -74 7 -8 10
-14 6 -14 -4 0 3 -9 16 -20 13 -11 19 -20 15 -20 -4 0 2 -8 13 -19 12 -10 22
-23 22 -29 0 -6 8 -16 18 -21 9 -6 14 -11 10 -11 -5 0 1 -10 11 -22 11 -13 29
-34 40 -47 12 -13 21 -27 21 -30 0 -3 11 -19 25 -34 14 -15 22 -27 18 -27 -4
0 -3 -4 2 -8 6 -4 27 -29 48 -55 31 -38 42 -46 53 -36 9 7 14 8 14 1 0 -11 72
-8 91 4 7 4 9 3 6 -2 -5 -9 108 -12 138 -4 6 1 12 1 15 0 21 -8 41 -6 47 3 5
7 8 380 9 829 0 654 -2 818 -13 822 -7 3 -15 0 -19 -6 -4 -7 -9 -6 -15 3 -8
12 -11 11 -19 -1 -8 -12 -10 -12 -10 -1 0 10 -3 11 -14 2 -11 -9 -15 -9 -19 1
-4 10 -8 10 -16 -2 -8 -12 -11 -12 -11 -1 0 10 -3 11 -13 2 -8 -6 -16 -8 -20
-5 -9 10 -78 10 -84 1 -3 -5 -9 -3 -14 4 -8 12 -11 11 -19 -1 -8 -12 -10 -12
-10 -1 0 10 -3 11 -14 2 -11 -9 -15 -9 -19 1 -3 9 -9 7 -20 -7 -9 -12 -12 -24
-7 -30 5 -6 5 -17 0 -25 -6 -9 -5 -17 2 -21 9 -6 9 -11 1 -21 -14 -16 -14 -29
-1 -45 6 -7 6 -13 1 -13 -5 0 -9 -9 -9 -20 0 -11 4 -20 8 -20 4 0 8 -5 8 -11
0 -5 -4 -8 -8 -5 -9 6 -9 -50 0 -60 4 -4 3 -15 -3 -25 -7 -14 -6 -19 2 -19 9
0 9 -3 0 -14 -8 -10 -9 -16 -1 -21 7 -4 7 -12 0 -25 -7 -13 -6 -20 3 -23 9 -3
8 -8 -3 -22 -18 -22 -18 -18 -1 -38 7 -10 9 -17 4 -17 -5 0 -9 -9 -9 -20 0
-11 4 -20 8 -20 4 0 8 -5 8 -11 0 -5 -4 -8 -8 -5 -9 6 -9 -50 0 -60 4 -4 3
-15 -3 -25 -7 -14 -6 -19 2 -19 9 0 9 -3 0 -14 -8 -10 -9 -16 -1 -21 7 -4 7
-12 0 -25 -7 -13 -6 -20 3 -23 9 -3 9 -8 1 -18 -12 -16 -12 -29 -1 -46 5 -7 4
-13 0 -13 -5 0 -9 -9 -9 -20 0 -11 4 -20 8 -20 4 0 8 -5 8 -11 0 -5 -4 -8 -8
-5 -9 6 -9 -50 0 -60 4 -4 3 -15 -3 -25 -7 -13 -6 -19 1 -19 6 0 8 -5 5 -11
-4 -6 -7 -26 -7 -44 0 -30 -2 -32 -14 -20 -8 7 -14 16 -14 20 0 3 -9 15 -20
27 -11 12 -20 28 -20 37 0 8 -3 11 -6 8 -4 -4 -22 15 -40 41 -36 50 -61 84
-81 107 -7 7 -13 19 -13 25 0 6 -4 8 -10 5 -5 -3 -10 0 -10 8 0 8 -12 26 -26
41 -15 14 -24 26 -20 26 5 0 -9 20 -39 54 -6 6 -37 47 -70 91 -82 109 -77 103
-103 130 -13 14 -19 25 -15 25 4 0 -1 7 -11 15 -11 8 -16 15 -11 15 5 0 0 7
-11 15 -10 8 -15 15 -11 15 4 0 -3 11 -17 24 -15 13 -26 26 -26 30 0 8 -18 31
-42 54 -10 9 -18 20 -18 25 0 5 -6 14 -12 22 -28 29 -48 56 -48 64 0 5 -7 12
-16 15 -8 3 -12 10 -9 16 3 5 2 10 -3 10 -5 0 -20 15 -33 34 -23 34 -73 53
-86 33 -3 -5 -9 -3 -14 4 -8 12 -11 11 -19 -1 -8 -12 -10 -12 -10 -1 0 10 -3
11 -14 2 -11 -9 -15 -9 -19 1 -4 10 -8 10 -16 -2 -8 -12 -11 -12 -11 -1 0 10
-3 11 -14 2 -11 -9 -15 -9 -19 1 -4 10 -8 10 -16 -2 -8 -12 -11 -12 -11 -1 0
10 -3 11 -14 2 -11 -9 -15 -9 -19 1 -4 10 -8 10 -16 -2 -8 -12 -11 -12 -11 -1
0 11 -3 11 -15 1 -10 -9 -15 -9 -15 -1 0 17 -17 13 -25 -6z"/>
<path d="M2780 4960 c0 -5 7 -10 15 -10 8 0 15 5 15 10 0 6 -7 10 -15 10 -8 0
-15 -4 -15 -10z"/>
<path d="M2830 4962 c0 -5 -11 -14 -25 -20 -32 -15 -32 -27 0 -28 23 -2 24 0
13 15 -12 14 -11 15 4 2 23 -17 13 -34 -15 -25 l-22 6 23 -21 c25 -25 27 -32
10 -49 -8 -8 -8 -12 -1 -12 6 0 16 7 23 15 10 12 10 18 1 29 -8 10 -9 16 -1
21 6 4 10 3 9 -2 -3 -19 2 -27 10 -15 7 11 9 10 14 -3 4 -9 3 -13 -3 -10 -6 3
-11 3 -11 -2 -14 -84 -15 -88 -35 -85 -16 3 -16 2 -4 -13 12 -14 14 -15 22 -1
5 8 15 13 22 10 10 -4 12 5 10 35 -2 25 2 44 12 51 15 13 20 35 6 26 -11 -6
-52 30 -53 47 -1 7 -1 18 0 25 1 6 -1 12 -4 12 -3 0 -5 -4 -5 -8z"/>
<path d="M2694 4938 c-5 -7 10 -12 29 -9 5 1 6 -3 2 -9 -3 -6 -12 -7 -18 -4
-8 5 -8 3 1 -7 15 -16 35 0 27 23 -6 16 -33 20 -41 6z"/>
<path d="M2734 4905 l-21 -23 24 -11 c30 -14 36 -14 27 1 -4 6 -3 8 4 4 5 -3
13 0 15 6 3 8 6 6 6 -5 1 -10 6 -15 11 -12 6 3 10 1 10 -5 0 -7 -7 -10 -15 -6
-8 3 -22 3 -31 -1 -13 -5 -13 -7 -2 -14 18 -12 31 -11 23 1 -3 5 0 7 8 4 29
-11 31 19 4 42 -15 13 -27 28 -27 34 0 15 -13 10 -36 -15z m30 -4 c3 -5 -1
-11 -9 -14 -9 -4 -12 -1 -8 9 6 16 10 17 17 5z"/>
<path d="M2720 4860 c8 -5 11 -10 6 -10 -5 0 -3 -6 3 -13 6 -8 7 -17 3 -22 -4
-4 2 -5 14 -1 13 4 26 1 34 -9 7 -8 17 -12 23 -8 6 3 7 1 3 -6 -4 -6 -12 -9
-17 -6 -5 4 -9 1 -9 -5 0 -6 7 -13 15 -16 8 -4 15 -10 15 -16 0 -5 -4 -6 -10
-3 -5 3 -10 1 -10 -5 0 -7 6 -10 14 -7 7 3 21 -4 31 -15 15 -18 15 -20 1 -15
-9 4 -16 2 -16 -3 0 -16 15 -18 35 -4 10 8 13 14 6 14 -7 0 -10 4 -7 8 3 5 -8
19 -25 31 -28 21 -31 48 -4 37 8 -3 12 2 10 12 -1 9 3 20 9 24 6 4 -7 5 -29 3
-22 -2 -51 3 -65 11 -15 8 -19 13 -10 14 13 0 13 1 0 10 -8 5 -19 10 -25 10
-5 0 -3 -5 5 -10z"/>
<path d="M2749 4808 c-7 -28 -3 -65 7 -61 8 3 10 -4 6 -23 -3 -19 -1 -25 7
-20 6 4 8 12 5 18 -4 7 -2 8 5 4 6 -4 9 -12 6 -17 -21 -32 -7 -96 18 -84 7 4
3 -1 -7 -9 -17 -14 -17 -16 -4 -16 9 0 19 4 23 10 3 5 13 6 22 3 12 -5 15 -2
11 9 -4 9 -2 20 3 25 7 7 1 16 -16 27 -20 13 -24 22 -19 39 6 22 6 22 -11 2
-9 -11 -14 -15 -11 -8 4 6 1 15 -5 18 -5 4 -8 13 -5 21 3 7 1 16 -5 19 -5 4
-8 14 -7 22 2 13 -20 33 -23 21z m26 -48 c3 -6 -1 -7 -9 -4 -18 7 -21 14 -7
14 6 0 13 -4 16 -10z m37 -91 c-2 -7 -7 -20 -12 -29 -8 -13 -10 -13 -10 0 -1
8 -3 22 -5 31 -2 11 3 16 14 14 9 -1 15 -9 13 -16z m28 -24 c-5 -7 -7 -15 -3
-19 4 -4 0 -4 -10 0 -26 10 -21 31 8 31 10 0 12 -4 5 -12z"/>
</g>
</svg>
